<svg width="90" height="10" viewBox="0 0 90 10" fill="none" xmlns="http://www.w3.org/2000/svg">
<path d="M47.265 9.75231H45.433L48.878 0.164307H50.733L54.182 9.75031H52.348L51.522 7.29431H48.091L47.265 9.75231ZM49.8 1.82531C49.791 1.86431 49.575 2.78231 49.387 3.31031L48.519 5.87531H51.08L50.212 3.31031C50.033 2.77431 49.833 1.83531 49.828 1.82531H49.8Z" fill="#1C1C1C"/>
<path d="M58.59 9.75628H56.813V0.165285H59.968C60.6363 0.112943 61.3081 0.206081 61.937 0.438285C62.4375 0.661461 62.8585 1.03135 63.1442 1.49902C63.4299 1.96668 63.5669 2.51007 63.537 3.05728C63.557 3.60985 63.4098 4.1556 63.1147 4.6232C62.8197 5.09081 62.3904 5.45852 61.883 5.67828V5.70528C62.0113 5.84955 62.1224 6.00829 62.214 6.17828L64.225 9.75529H62.243L60.3 6.17828H58.59V9.75529V9.75628ZM58.59 1.66528V4.66528H60.19C60.3954 4.68688 60.6031 4.66276 60.7981 4.59464C60.9931 4.52652 61.1706 4.4161 61.3179 4.27129C61.4652 4.12649 61.5786 3.95088 61.65 3.75707C61.7214 3.56326 61.7491 3.35604 61.731 3.15028C61.731 2.10928 61.195 1.66528 59.94 1.66528H58.59Z" fill="#1C1C1C"/>
<path d="M70.5931 9.75231H67.2581V0.166308H70.5931C71.9176 0.104287 73.2154 0.553579 74.2181 1.42131C74.6773 1.88188 75.0356 2.43312 75.2699 3.03988C75.5043 3.64664 75.6095 4.29558 75.5791 4.94531C75.5791 7.91031 73.6691 9.75231 70.5931 9.75231ZM69.0351 1.66631V8.25331H70.4961C70.9384 8.29559 71.3846 8.23857 71.8022 8.08642C72.2197 7.93426 72.598 7.69081 72.9094 7.37382C73.2208 7.05683 73.4575 6.6743 73.6023 6.25416C73.747 5.83401 73.7962 5.38685 73.7461 4.94531C73.7888 4.50661 73.7343 4.0639 73.5865 3.64865C73.4387 3.23341 73.2012 2.85583 72.8909 2.54278C72.5806 2.22973 72.2052 1.9889 71.7912 1.83741C71.3773 1.68592 70.9351 1.6275 70.4961 1.66631H69.0351Z" fill="#1C1C1C"/>
<path d="M78.764 7.29431C79.4373 7.90029 80.2984 8.25651 81.203 8.30331C81.947 8.30331 82.623 7.92631 82.623 7.14331C82.623 5.43031 78.006 5.72731 78.006 2.78531C78.006 1.19031 79.411 0.00330866 81.285 0.00330866C82.3538 -0.0391212 83.3985 0.327833 84.206 1.02931L83.433 2.44831C82.8228 1.9391 82.062 1.64496 81.268 1.61131C80.444 1.61131 79.797 2.08431 79.797 2.75931C79.797 4.45931 84.397 4.04231 84.397 7.10931C84.397 8.63531 83.213 9.91731 81.173 9.91731C79.9196 9.94117 78.7071 9.47139 77.797 8.60931L78.764 7.29431Z" fill="#1C1C1C"/>
<path d="M31.472 0.164307L29.859 6.79831C29.7837 7.13163 29.7289 7.46926 29.695 7.80931H29.667C29.6299 7.46869 29.5701 7.13094 29.488 6.79831L27.752 0.164307H26.209L24.446 6.79831C24.3628 7.13071 24.303 7.46853 24.267 7.80931H24.239C24.2037 7.46939 24.1486 7.13182 24.074 6.79831L22.92 1.83231L22.052 5.45231L23.152 9.75231H25.203L26.703 4.08231C26.8096 3.66866 26.8927 3.24932 26.952 2.82631H26.978C27.0367 3.24943 27.1198 3.6688 27.227 4.08231L28.727 9.75231H30.784L33.307 0.164307H31.472Z" fill="#1C1C1C"/>
<path d="M42.5091 0.16626L40.8951 6.79926C40.8199 7.13262 40.7651 7.47024 40.7311 7.81026H40.7021C40.6678 7.46939 40.6087 7.13148 40.5251 6.79926L38.7871 0.16626H37.2461L35.4811 6.79926C35.3975 7.13159 35.3377 7.46944 35.3021 7.81026H35.2751C35.2409 7.47019 35.1858 7.13255 35.1101 6.79926L33.9491 1.80926L33.0811 5.43026L34.1871 9.75326H36.2401L37.7401 4.08226C37.8464 3.66855 37.9295 3.24923 37.9891 2.82626H38.0161C38.0748 3.2493 38.1576 3.66865 38.2641 4.08226L39.7641 9.75326H41.8211L44.3441 0.16626H42.5091Z" fill="#1C1C1C"/>
<path d="M1.833 9.75326H0L3.445 0.16626H5.305L8.749 9.75126H6.916L6.091 7.29426H2.659L1.833 9.75226V9.75326ZM4.369 1.82626C4.36 1.86526 4.144 2.78326 3.956 3.31126L3.087 5.87626H5.649L4.78 3.31226C4.6 2.77726 4.4 1.83526 4.395 1.82626H4.369Z" fill="#1C1C1C"/>
<path d="M18.4511 6.79731C18.5341 7.13004 18.5935 7.46821 18.6291 7.80931H18.6591C18.6937 7.46897 18.7488 7.13102 18.8241 6.79731L20.4341 0.164307H22.2671L19.7441 9.75231H17.6921L16.1921 4.08131C16.0859 3.6679 16.0028 3.24892 15.9431 2.82631H15.9141C15.8559 3.24912 15.7731 3.66817 15.6661 4.08131L14.1661 9.75231H12.1111L9.65906 0.164307H11.4921L13.0351 6.79831C13.111 7.13156 13.1661 7.46921 13.2001 7.80931H13.2291C13.2649 7.46853 13.3248 7.13069 13.4081 6.79831L15.1711 0.164307H16.7121L18.4511 6.79731Z" fill="#1C1C1C"/>
<path d="M88.237 6.63635C88.0172 6.63771 87.7992 6.59514 87.5961 6.51115C87.3929 6.42715 87.2085 6.30342 87.0538 6.14721C86.8991 5.991 86.7771 5.80546 86.6951 5.60148C86.613 5.3975 86.5725 5.17919 86.576 4.95935C86.576 4.51591 86.7522 4.09063 87.0657 3.77707C87.3793 3.46351 87.8046 3.28735 88.248 3.28735C88.6915 3.28735 89.1167 3.46351 89.4303 3.77707C89.7439 4.09063 89.92 4.51591 89.92 4.95935C89.922 5.18065 89.8798 5.40012 89.7959 5.60488C89.7119 5.80965 89.588 5.99559 89.4312 6.1518C89.2744 6.308 89.088 6.43133 88.883 6.51453C88.6779 6.59774 88.4583 6.63916 88.237 6.63635ZM88.237 3.48335C88.044 3.48318 87.8529 3.52156 87.6749 3.59625C87.497 3.67094 87.3357 3.78043 87.2006 3.9183C87.0656 4.05617 86.9594 4.21963 86.8884 4.39909C86.8173 4.57855 86.7829 4.77039 86.787 4.96335C86.783 5.15628 86.8176 5.34806 86.8887 5.52746C86.9597 5.70686 87.0659 5.87027 87.201 6.00811C87.336 6.14595 87.4972 6.25544 87.6751 6.33018C87.853 6.40492 88.044 6.44339 88.237 6.44335C88.4319 6.44707 88.6256 6.41125 88.8063 6.33806C88.9869 6.26486 89.1509 6.15582 89.2883 6.01751C89.4257 5.87919 89.5336 5.71447 89.6056 5.5333C89.6775 5.35212 89.712 5.15824 89.707 4.96335C89.7098 4.76907 89.6738 4.57618 89.601 4.396C89.5283 4.21583 89.4203 4.05201 89.2833 3.91415C89.1464 3.77628 88.9833 3.66716 88.8036 3.59319C88.624 3.51921 88.4313 3.48187 88.237 3.48335ZM87.898 5.88335H87.698V4.03135H88.324C88.3962 4.02727 88.4685 4.03831 88.5362 4.06375C88.604 4.0892 88.6656 4.12849 88.7173 4.17913C88.769 4.22976 88.8095 4.29062 88.8363 4.35782C88.8631 4.42501 88.8756 4.49706 88.873 4.56935C88.8804 4.68211 88.848 4.7939 88.7815 4.88525C88.715 4.97661 88.6186 5.04176 88.509 5.06935V5.07835C88.529 5.10835 88.555 5.15135 88.572 5.17835L88.944 5.88435H88.713L88.313 5.11135H87.898V5.88335ZM87.898 4.21335V4.93135H88.298C88.3464 4.93488 88.3951 4.92784 88.4405 4.9107C88.486 4.89357 88.5271 4.86677 88.5612 4.83214C88.5952 4.79752 88.6214 4.7559 88.6377 4.71018C88.6541 4.66446 88.6603 4.61572 88.656 4.56735C88.659 4.5198 88.6516 4.47218 88.6344 4.42775C88.6172 4.38333 88.5905 4.34315 88.5563 4.30999C88.5221 4.27683 88.4812 4.25147 88.4362 4.23565C88.3913 4.21983 88.3434 4.21393 88.296 4.21835L87.898 4.21335Z" fill="#1C1C1C"/>
</svg>
